<?xml version="1.0" encoding="utf-8"?>
<!-- Generator: Adobe Illustrator 28.4.1, SVG Export Plug-In . SVG Version: 6.00 Build 0)  -->
<svg version="1.1" id="Camada_1" xmlns="http://www.w3.org/2000/svg" xmlns:xlink="http://www.w3.org/1999/xlink" x="0px" y="0px"
	 viewBox="0 0 269.4 104.7" style="enable-background:new 0 0 269.4 104.7;" xml:space="preserve">
<style type="text/css">
	.st0{fill:#8F75FF;}
	.st1{fill:#72EA24;}
	.st2{fill:#3C0080;}
</style>
<g>
	<path class="st0" d="M267.4,80H264v-3.4c0-1.1-0.9-2-2-2s-2,0.9-2,2V80h-3.4c-1.1,0-2,0.9-2,2s0.9,2,2,2h3.4v3.4c0,1.1,0.9,2,2,2
		s2-0.9,2-2V84h3.4c1.1,0,2-0.9,2-2S268.5,80,267.4,80z"/>
	<path class="st0" d="M10.1,25.1H8v-2c0-1.1-0.9-2-2-2s-2,0.9-2,2v2H2c-1.1,0-2,0.9-2,2s0.9,2,2,2h2v2c0,1.1,0.9,2,2,2s2-0.9,2-2v-2
		h2c1.1,0,2-0.9,2-2S11.2,25.1,10.1,25.1z"/>
</g>
<g>
	<g>
		<g>
			<path class="st1" d="M121.9,47.7H67L94.4,6.6C94.4,6.6,121.9,47.7,121.9,47.7z M88.7,36.1h11.5l-5.8-8.6
				C94.5,27.4,88.7,36.1,88.7,36.1z"/>
			<path class="st2" d="M174.6,48h-12V22.5l-7.8,7.8c-2.3,2.3-6.1,2.3-8.5,0l-7.8-7.8V48h-12V8c0-2.4,1.5-4.6,3.7-5.5
				c2.2-0.9,4.8-0.4,6.5,1.3l13.8,13.8l13.8-13.8c1.7-1.7,4.3-2.2,6.5-1.3c2.2,0.9,3.7,3.1,3.7,5.5L174.6,48L174.6,48z"/>
			<path class="st2" d="M225.9,31.1c-2.8-1.9-6.5-1.1-8.3,1.6c-2.2,3.3-6,5.3-9.9,5.3c-4.5,0-8.4-2.5-10.4-6.1h8.4
				c3.3,0,5.9-2.6,5.9-5.9s-2.6-5.9-5.9-5.9h-8.4c2.1-3.6,6-6.1,10.4-6.1c3.5,0,6.9,1.6,9.2,4.3c2.1,2.5,5.9,2.8,8.5,0.7
				s2.8-5.9,0.7-8.5C221.3,5.1,214.6,2,207.6,2c-13.2,0-24,10.8-24,24s10.8,24,24,24c8,0,15.4-4,19.9-10.6
				C229.3,36.7,228.6,33,225.9,31.1z"/>
			<path class="st2" d="M45,50c-0.7,0-1.3,0-2-0.1c-11.4-1-20.5-9.9-21.8-21.2c-0.8-6.8,1.4-13.6,6-18.7C31.6,4.9,38.2,2,45,2
				s13.7,3.1,18.3,8.5c2.1,2.5,1.8,6.3-0.7,8.5c-2.5,2.1-6.3,1.8-8.5-0.7C51.8,15.5,48.5,14,45,14s-6.7,1.5-8.9,4
				c-2.3,2.6-3.4,5.9-3,9.4c0.6,5.5,5.3,10.1,10.9,10.6c3.8,0.3,7.5-1.2,10-3.9v-0.9h-9.6c-3.3,0-6-2.7-6-6s2.7-6,6-6h12.3
				c5.1,0,9.3,4.2,9.3,9.3v4.2c0,2.3-0.8,4.6-2.3,6.5C59,46.8,52.2,50,45,50L45,50z M56.6,33.1L56.6,33.1L56.6,33.1z"/>
		</g>
		<g>
			<path class="st1" d="M190.7,68.8c-3.3,0-6-2.7-6-6v-0.6c0-3.3,2.7-6,6-6s6,2.7,6,6v0.6C196.7,66.2,194,68.8,190.7,68.8z"/>
			<g>
				<path class="st1" d="M121.4,102.5h-55l27.5-41.1L121.4,102.5z M88.1,90.9h11.5l-5.8-8.6C93.9,82.3,88.1,90.9,88.1,90.9z"/>
				<path class="st2" d="M61.2,102.8h-12V77.3l-7.8,7.8c-2.3,2.3-6.1,2.3-8.5,0l-7.8-7.8v25.5h-12v-40c0-2.4,1.5-4.6,3.7-5.5
					s4.8-0.4,6.5,1.3l13.8,13.8L51,58.6c1.7-1.7,4.3-2.2,6.5-1.3s3.7,3.1,3.7,5.5C61.2,62.8,61.2,102.8,61.2,102.8z"/>
				<path class="st1" d="M256.2,102.5h-55l27.5-41.1L256.2,102.5z M223,90.9h11.5l-5.8-8.6L223,90.9L223,90.9z"/>
				<path class="st2" d="M169.6,102.8c-1.5,0-3-0.6-4.1-1.6l-25.9-24.4v26.1h-12v-40c0-2.4,1.4-4.6,3.6-5.5s4.8-0.5,6.5,1.2
					l25.9,24.4V56.8h12v40c0,2.4-1.4,4.6-3.6,5.5C171.2,102.7,170.4,102.8,169.6,102.8L169.6,102.8z"/>
				<path class="st2" d="M190.7,102.8c-3.3,0-6-2.7-6-6V77.4c0-3.3,2.7-6,6-6s6,2.7,6,6v19.5C196.7,100.2,194,102.8,190.7,102.8z"/>
			</g>
		</g>
	</g>
</g>
</svg>
